<svg width="400" height="300" viewBox="0 0 400 300" fill="none" xmlns="http://www.w3.org/2000/svg" role="img" aria-label="Food and drink placeholder illustration">
  <rect width="400" height="300" rx="24" fill="#faf7f2"/>
  <ellipse cx="200" cy="268" rx="150" ry="22" fill="#e8a838" fill-opacity="0.2"/>
  <circle cx="76" cy="76" r="52" fill="#e8a838" fill-opacity="0.25"/>
  <circle cx="330" cy="58" r="38" fill="#c41e3a" fill-opacity="0.14"/>
  <path d="M50 208C98 152 167 134 228 152C277 166 318 202 350 236" stroke="#1a3a2a" stroke-width="7" stroke-linecap="round"/>

  <circle cx="200" cy="170" r="64" fill="#1a3a2a"/>
  <circle cx="200" cy="170" r="50" fill="#faf7f2"/>
  <circle cx="200" cy="170" r="38" fill="#e8a838" fill-opacity="0.34"/>

  <rect x="140" y="98" width="10" height="124" rx="5" fill="#c41e3a"/>
  <rect x="132" y="90" width="7" height="20" rx="3.5" fill="#c41e3a"/>
  <rect x="141" y="90" width="7" height="20" rx="3.5" fill="#c41e3a"/>
  <rect x="150" y="90" width="7" height="20" rx="3.5" fill="#c41e3a"/>

  <rect x="250" y="98" width="10" height="124" rx="5" fill="#c41e3a"/>
  <path d="M255 98C275 98 289 114 289 132C289 150 275 166 255 166" stroke="#c41e3a" stroke-width="10" stroke-linecap="round"/>

  <path d="M154 232H246" stroke="#1a3a2a" stroke-opacity="0.5" stroke-width="6" stroke-linecap="round"/>
</svg>
