<svg width="400" height="300" viewBox="0 0 400 300" fill="none" xmlns="http://www.w3.org/2000/svg" role="img" aria-label="Outdoors placeholder illustration">
  <rect width="400" height="300" rx="24" fill="#faf7f2"/>
  <circle cx="322" cy="70" r="34" fill="#e8a838"/>
  <path d="M0 208C56 180 111 176 164 188C215 198 270 218 400 206V300H0V208Z" fill="#1a3a2a" fill-opacity="0.18"/>
  <path d="M0 228C74 206 141 212 208 224C264 235 321 247 400 235V300H0V228Z" fill="#1a3a2a" fill-opacity="0.26"/>

  <ellipse cx="208" cy="234" rx="154" ry="26" fill="#5f8d73"/>
  <ellipse cx="208" cy="240" rx="144" ry="20" fill="#6ea088"/>

  <path d="M118 236C128 210 154 162 176 136C201 106 228 108 248 136C267 161 286 212 294 236" fill="#1a3a2a"/>
  <path d="M178 236C188 210 205 174 222 156C239 175 254 210 262 236" fill="#e8a838" fill-opacity="0.32"/>

  <rect x="78" y="150" width="16" height="72" rx="8" fill="#c41e3a"/>
  <path d="M86 104L58 154H114L86 104Z" fill="#1a3a2a"/>
  <path d="M86 82L64 122H108L86 82Z" fill="#1a3a2a"/>

  <rect x="304" y="158" width="14" height="62" rx="7" fill="#c41e3a"/>
  <path d="M311 118L286 162H336L311 118Z" fill="#1a3a2a"/>
</svg>
