<svg xmlns="http://www.w3.org/2000/svg" viewBox="0 0 520 128" role="img" aria-label="GeauxFind logo dark">
  <defs>
    <linearGradient id="pinDark" x1="0" y1="0" x2="1" y2="1">
      <stop offset="0%" stop-color="#C43838"/>
      <stop offset="100%" stop-color="#8B1A1A"/>
    </linearGradient>
  </defs>
  <rect x="0" y="0" width="520" height="128" rx="24" fill="rgba(0,0,0,0)"/>
  <g transform="translate(20,6)">
    <path d="M64 14c-20.4 0-37 16.5-37 36.9 0 24.9 28.3 53.4 34.6 59.4a3.6 3.6 0 0 0 4.8 0C72.7 104.3 101 75.8 101 50.9 101 30.5 84.4 14 64 14Z" fill="url(#pinDark)"/>
    <circle cx="64" cy="50" r="21" fill="#FAF8F5"/>
    <path d="M64 34c-2.7 3.3-2.5 7.8.6 10.6-4.3 1.4-7.7 4.7-9.3 9.1-2.8-.7-5.8.2-7.9 2.2 2 2.2 5.1 3.1 7.9 2.6.2 1.6.6 3.2 1.4 4.6-2.6 1.1-4.6 3.5-5.2 6.3 2.7 1.1 5.9.4 8-1.3 2.2 2.6 5.1 4.4 8.4 5.1V80h3.9v-6.7a15.3 15.3 0 0 0 8.4-5.1c2.1 1.7 5.3 2.4 8 1.3-.6-2.8-2.6-5.2-5.2-6.3.8-1.4 1.2-3 1.4-4.6 2.8.5 5.9-.4 7.9-2.6-2.1-2-5.1-2.9-7.9-2.2a15.8 15.8 0 0 0-9.3-9.1c3.1-2.8 3.3-7.3.6-10.6H64Z" fill="#D4A843"/>
  </g>
  <text x="144" y="78" font-size="58" font-weight="700" font-family="Inter, Arial, sans-serif" fill="#FAF8F5" letter-spacing="0.3">Geaux</text>
  <text x="334" y="78" font-size="58" font-weight="600" font-family="Inter, Arial, sans-serif" fill="#D4A843" letter-spacing="0.3">Find</text>
</svg>
