<svg xmlns="http://www.w3.org/2000/svg" viewBox="0 0 200 200" role="img" aria-label="Geaux the gator searching"><defs><style>.o{stroke:#2e7d32;stroke-width:3;stroke-linecap:round;stroke-linejoin:round}.g{fill:#4caf50}.b{fill:#f6e8b1}</style></defs><ellipse cx="100" cy="176" rx="55" ry="12" fill="#000" opacity=".08"/><path class="o g" d="M60 78c0-24 18-42 40-42s40 18 40 42v53H60z"/><ellipse class="o b" cx="100" cy="112" rx="24" ry="30"/><path class="o g" d="M74 98l-12 16"/><path class="o g" d="M126 98l14 18"/><circle class="o" cx="86" cy="67" r="12" fill="#fff"/><circle class="o" cx="114" cy="67" r="12" fill="#fff"/><circle cx="89" cy="70" r="5" fill="#263238"/><circle cx="111" cy="70" r="5" fill="#263238"/><path class="o" d="M83 84c5 5 10 7 17 7s12-2 17-7" fill="none"/><rect x="72" y="42" width="56" height="12" rx="4" fill="#d7b56d" stroke="#8d6e63" stroke-width="3"/><path d="M81 42l8-9h22l8 9" fill="#e8cf8b" stroke="#8d6e63" stroke-width="3" stroke-linejoin="round"/><circle cx="148" cy="128" r="14" fill="#e3f2fd" stroke="#455a64" stroke-width="4"/><path d="M158 138l11 11" stroke="#455a64" stroke-width="5" stroke-linecap="round"/></svg>