<svg xmlns="http://www.w3.org/2000/svg" viewBox="0 0 200 200" role="img" aria-label="Geaux the gator chef"><defs><style>.o{stroke:#2e7d32;stroke-width:3;stroke-linecap:round;stroke-linejoin:round}.g{fill:#4caf50}.b{fill:#f6e8b1}</style></defs><ellipse cx="100" cy="176" rx="55" ry="12" fill="#000" opacity=".08"/><path class="o g" d="M60 78c0-24 18-42 40-42s40 18 40 42v53H60z"/><ellipse class="o b" cx="100" cy="112" rx="24" ry="30"/><path class="o g" d="M74 98l-12 16"/><path class="o g" d="M126 98l18 18c6 6 6 16 0 22-7 7-18 7-25 0l-8-8"/><circle class="o" cx="86" cy="67" r="12" fill="#fff"/><circle class="o" cx="114" cy="67" r="12" fill="#fff"/><circle cx="89" cy="70" r="5" fill="#263238"/><circle cx="111" cy="70" r="5" fill="#263238"/><path class="o" d="M83 84c5 5 10 7 17 7s12-2 17-7" fill="none"/><path d="M128 127l13-20 9 6-13 20z" fill="#d9d9d9" stroke="#607d8b" stroke-width="3"/><path d="M150 108l8-13" stroke="#607d8b" stroke-width="3" stroke-linecap="round"/><path d="M156 112l10-7" stroke="#607d8b" stroke-width="3" stroke-linecap="round"/><path d="M136 36c9-1 16 6 15 14 7 1 12 8 11 15H67c-1-8 4-14 11-15-1-8 6-15 15-14 1-7 7-11 14-11s13 4 14 11z" fill="#fff" stroke="#90a4ae" stroke-width="3"/></svg>