<svg xmlns="http://www.w3.org/2000/svg" viewBox="0 0 200 200" role="img" aria-label="Geaux the gator thinking"><defs><style>.o{stroke:#2e7d32;stroke-width:3;stroke-linecap:round;stroke-linejoin:round}.g{fill:#4caf50}.b{fill:#f6e8b1}</style></defs><ellipse cx="100" cy="176" rx="55" ry="12" fill="#000" opacity=".08"/><path class="o g" d="M60 78c0-24 18-42 40-42s40 18 40 42v53H60z"/><ellipse class="o b" cx="100" cy="112" rx="24" ry="30"/><path class="o g" d="M74 98l-12 16"/><path class="o g" d="M126 98l7 18"/><circle class="o" cx="86" cy="67" r="12" fill="#fff"/><circle class="o" cx="114" cy="67" r="12" fill="#fff"/><circle cx="88" cy="71" r="5" fill="#263238"/><circle cx="109" cy="69" r="5" fill="#263238"/><path class="o" d="M84 86c8-3 15-3 23 0" fill="none"/><path class="o" d="M94 126h14" fill="none"/><path class="o" d="M130 118l-16 8"/><rect x="72" y="42" width="56" height="12" rx="4" fill="#d7b56d" stroke="#8d6e63" stroke-width="3"/><path d="M81 42l8-9h22l8 9" fill="#e8cf8b" stroke="#8d6e63" stroke-width="3" stroke-linejoin="round"/><circle cx="154" cy="56" r="11" fill="#fff" stroke="#90a4ae" stroke-width="3"/><circle cx="170" cy="43" r="7" fill="#fff" stroke="#90a4ae" stroke-width="3"/><circle cx="181" cy="34" r="4" fill="#fff" stroke="#90a4ae" stroke-width="3"/></svg>